<?xml version="1.0" standalone="no"?>
<!DOCTYPE svg PUBLIC "-//W3C//DTD SVG 20010904//EN"
 "http://www.w3.org/TR/2001/REC-SVG-20010904/DTD/svg10.dtd">
<svg version="1.0" xmlns="http://www.w3.org/2000/svg"
 width="700pt" height="700pt" viewBox="0 0 700 700"
 preserveAspectRatio="xMidYMid meet">
<g transform="translate(0,700) scale(0.1,-0.1)"
fill="#000000" stroke="none">
<path d="M5171 4695 c-180 -51 -260 -207 -260 -505 0 -320 93 -477 303 -512
85 -14 192 2 265 39 96 49 157 153 168 286 l6 67 -95 0 -94 0 -12 -60 c-17
-80 -55 -124 -121 -140 -89 -21 -173 19 -207 99 -24 57 -36 208 -25 316 16
153 58 215 157 231 99 15 174 -40 196 -146 l12 -60 94 0 95 0 -6 63 c-10 103
-41 174 -106 238 -38 37 -73 61 -106 73 -71 24 -197 30 -264 11z"/>
<path d="M252 4693 c1 -5 56 -110 121 -235 64 -124 117 -232 117 -239 0 -7
-58 -126 -130 -265 -71 -139 -130 -255 -130 -259 0 -3 44 -5 98 -5 l98 0 84
175 c46 96 86 175 89 175 3 0 43 -78 88 -173 l83 -172 100 -3 100 -3 -133 268
-134 268 118 225 c65 124 118 231 119 238 0 9 -27 12 -103 12 l-103 0 -64
-145 c-36 -79 -67 -145 -71 -145 -3 0 -34 64 -70 143 l-64 142 -108 3 c-60 1
-107 -1 -105 -5z"/>
<path d="M1230 4195 l0 -505 250 0 250 0 0 505 0 505 -250 0 -250 0 0 -505z"/>
<path d="M2000 4605 l0 -95 105 0 105 0 0 -415 0 -416 88 3 87 3 3 413 2 412
105 0 105 0 0 95 0 95 -300 0 -300 0 0 -95z"/>
<path d="M2928 4694 c-5 -4 -8 -232 -8 -506 l0 -498 95 0 95 0 0 193 0 192
126 -192 126 -193 119 0 c65 0 119 1 119 3 0 2 -60 84 -134 183 l-135 179 52
14 c35 10 65 28 98 60 59 58 79 119 79 242 0 157 -56 253 -176 299 -52 20 -83
23 -254 27 -107 3 -198 2 -202 -3z m381 -207 c43 -22 64 -61 64 -119 0 -105
-42 -138 -175 -138 l-88 0 0 135 0 135 88 0 c49 0 97 -6 111 -13z"/>
<path d="M4126 4692 c-3 -5 -66 -224 -141 -488 -75 -263 -138 -487 -141 -497
-5 -16 2 -18 92 -15 l98 3 20 83 20 82 173 0 172 0 10 -37 c6 -21 15 -59 22
-85 l11 -48 94 0 c55 0 94 4 94 10 0 9 -214 772 -261 933 l-20 67 -119 0 c-65
0 -121 -4 -124 -8z m187 -428 c32 -122 57 -224 57 -228 0 -3 -57 -6 -126 -6
-96 0 -125 3 -121 13 2 6 31 112 63 234 32 122 61 219 65 215 3 -4 31 -106 62
-228z"/>
<path d="M6010 4195 l0 -505 90 0 90 0 0 210 0 210 53 0 52 -1 130 -207 130
-207 103 -3 c56 -1 102 0 102 3 0 3 -73 120 -161 259 -89 140 -161 258 -160
263 1 4 68 109 149 232 81 124 148 231 150 238 3 10 -19 13 -96 13 l-99 0
-125 -197 -124 -198 -52 -3 -52 -3 0 200 0 201 -90 0 -90 0 0 -505z"/>
<path d="M4563 3305 c-141 -38 -226 -117 -275 -254 -29 -80 -37 -326 -14 -425
40 -169 145 -280 298 -316 24 -5 84 -10 135 -10 112 0 180 22 247 82 26 22 48
39 50 37 2 -2 11 -28 20 -56 l18 -53 69 0 69 0 0 295 0 295 -252 -2 -253 -3 0
-105 0 -105 123 -3 122 -3 -6 -27 c-12 -50 -44 -90 -90 -113 -65 -31 -177 -24
-228 14 -56 43 -71 98 -71 262 0 130 2 144 25 189 36 69 80 91 185 91 54 -1
90 -6 111 -18 32 -17 64 -69 64 -106 0 -20 5 -21 136 -21 l137 0 -7 58 c-17
153 -118 257 -288 297 -79 19 -256 18 -325 0z m322 -49 c137 -36 217 -110 240
-223 l7 -33 -90 0 c-87 0 -90 1 -96 24 -18 73 -100 118 -216 119 -121 0 -188
-39 -232 -137 -20 -45 -23 -67 -23 -191 0 -109 4 -151 18 -191 24 -70 74 -119
139 -139 171 -50 320 36 330 191 l3 49 -122 3 -123 3 0 59 0 60 205 0 205 0 0
-245 0 -245 -28 0 c-26 0 -30 5 -56 87 -28 86 -29 87 -45 64 -96 -139 -200
-185 -365 -162 -97 14 -151 37 -210 91 -84 78 -120 192 -119 380 0 116 18 212
49 273 40 76 131 145 221 166 59 14 252 12 308 -3z"/>
<path d="M1820 2810 l0 -500 130 0 130 0 2 292 3 293 111 -290 111 -290 124
-3 124 -3 110 288 110 288 3 -287 2 -288 130 0 130 0 0 500 0 500 -173 0 -173
0 -130 -324 c-71 -179 -132 -322 -135 -318 -3 4 -62 150 -129 325 l-124 317
-178 0 -178 0 0 -500z m442 147 c65 -166 122 -314 128 -329 8 -23 15 -28 42
-28 l33 1 130 329 130 330 138 0 137 0 0 -450 0 -450 -85 0 -85 0 -2 393 -3
392 -150 -392 -150 -393 -91 0 -92 0 -15 38 c-8 20 -74 192 -147 382 -73 190
-136 349 -141 355 -5 5 -9 -156 -9 -383 l0 -392 -80 0 -80 0 0 450 0 450 138
0 137 0 117 -303z"/>
<path d="M3507 3268 c-8 -24 -87 -247 -176 -495 -88 -249 -161 -455 -161 -458
0 -3 60 -5 134 -5 l135 0 28 85 27 85 189 -2 189 -3 26 -82 25 -83 138 0 138
0 -28 78 c-15 42 -95 267 -177 499 l-149 423 -162 0 -161 0 -15 -42z m464
-458 c87 -245 159 -446 159 -448 0 -1 -39 -1 -87 0 l-87 3 -25 80 -26 80 -222
3 -222 2 -27 -85 -28 -85 -83 0 c-46 0 -83 3 -83 8 0 4 71 206 157 450 l158
443 129 -3 129 -3 158 -445z"/>
<path d="M3591 2917 c-50 -149 -91 -275 -91 -280 0 -4 84 -7 186 -7 164 0 185
2 180 15 -3 9 -44 135 -92 280 -47 146 -87 265 -89 265 -2 0 -44 -123 -94
-273z m209 -229 c0 -5 -54 -8 -119 -8 l-119 0 60 182 61 183 59 -175 c32 -96
58 -178 58 -182z"/>
</g>
</svg>
